<?xml version="1.0" encoding="UTF-8" standalone="no"?>
<!-- Created with Inkscape (http://www.inkscape.org/) -->

<svg
   xmlns:dc="http://purl.org/dc/elements/1.1/"
   xmlns:cc="http://creativecommons.org/ns#"
   xmlns:rdf="http://www.w3.org/1999/02/22-rdf-syntax-ns#"
   xmlns:svg="http://www.w3.org/2000/svg"
   xmlns="http://www.w3.org/2000/svg"
   xmlns:sodipodi="http://sodipodi.sourceforge.net/DTD/sodipodi-0.dtd"
   xmlns:inkscape="http://www.inkscape.org/namespaces/inkscape"
   width="160"
   height="123.1402"
   id="svg2"
   version="1.1"
   inkscape:version="0.91 r"
   sodipodi:docname="logo_no_border.svg"
   inkscape:export-filename="/home/sldr/Documents/Graphics/Statsskicket/avatar.png"
   inkscape:export-xdpi="163.64"
   inkscape:export-ydpi="163.64">
  <defs
     id="defs4" />
  <sodipodi:namedview
     id="base"
     pagecolor="#ffffff"
     bordercolor="#666666"
     borderopacity="1.0"
     inkscape:pageopacity="0.0"
     inkscape:pageshadow="2"
     inkscape:zoom="2.8284271"
     inkscape:cx="28.407799"
     inkscape:cy="58.645637"
     inkscape:document-units="px"
     inkscape:current-layer="layer1"
     showgrid="false"
     inkscape:snap-bbox="true"
     inkscape:bbox-nodes="true"
     inkscape:object-nodes="true"
     fit-margin-top="0"
     fit-margin-left="0"
     fit-margin-right="0"
     fit-margin-bottom="0"
     inkscape:window-width="1920"
     inkscape:window-height="1028"
     inkscape:window-x="1920"
     inkscape:window-y="25"
     inkscape:window-maximized="1"
     inkscape:snap-bbox-midpoints="true"
     inkscape:snap-page="true"
     inkscape:snap-bbox-edge-midpoints="true" />
  <metadata
     id="metadata7">
    <rdf:RDF>
      <cc:Work
         rdf:about="">
        <dc:format>image/svg+xml</dc:format>
        <dc:type
           rdf:resource="http://purl.org/dc/dcmitype/StillImage" />
        <dc:title />
      </cc:Work>
    </rdf:RDF>
  </metadata>
  <g
     inkscape:label="txt"
     inkscape:groupmode="layer"
     id="layer1"
     transform="translate(-142.04724,-249.19168)"
     style="display:inline">
    <g
       id="g3056"
       transform="matrix(2.5078551,0,0,2.5078551,-287.86493,-493.995)"
       style="fill:#cccccc">
      <path
         d="m 206.70259,337.22845 c -2e-5,1.06454 0.14414,1.91839 0.43247,2.56154 0.31047,0.64317 0.70967,1.14217 1.19761,1.49701 0.51006,0.33267 1.10886,0.55445 1.7964,0.66534 0.68749,0.11089 1.40827,0.16633 2.16235,0.16633 l 1.56354,0 0,2.86094 -21.19096,0 0,-2.86094 1.56354,0 c 0.75404,0 1.46373,-0.0444 2.12908,-0.13307 0.6875,-0.11088 1.2863,-0.32157 1.79641,-0.63207 0.51007,-0.31048 0.90927,-0.76513 1.1976,-1.36394 0.31047,-0.62097 0.46572,-1.43046 0.46574,-2.42847 l 0,-37.82436 -6.5203,0 c -0.99801,5e-5 -1.84077,0.15529 -2.52827,0.46574 -0.66535,0.28836 -1.21979,0.68756 -1.66334,1.1976 -0.42139,0.51014 -0.74297,1.10894 -0.96474,1.79641 -0.19961,0.66538 -0.34376,1.37507 -0.43247,2.12908 l -0.36593,2.92748 -3.52629,0 0.33267,-11.90952 38.35662,0 0.33267,11.90952 -3.52628,0 -0.33267,-2.92748 c -0.0887,-0.75401 -0.24399,-1.4637 -0.46573,-2.12908 -0.22182,-0.68747 -0.54339,-1.28627 -0.96474,-1.79641 -0.42141,-0.51004 -0.97586,-0.90924 -1.66334,-1.1976 -0.68755,-0.31045 -1.54139,-0.46569 -2.56154,-0.46574 l -6.6201,0 0,37.49169"
         style="font-style:normal;font-variant:normal;font-weight:normal;font-stretch:normal;font-size:68.13040924px;line-height:125%;font-family:'Noto Serif';-inkscape-font-specification:'Noto Serif';letter-spacing:0px;word-spacing:0px;fill:#cccccc;fill-opacity:1;stroke:none"
         id="path3047"
         inkscape:connector-curvature="0" />
      <path
         inkscape:transform-center-y="7.28377"
         inkscape:transform-center-x="21.28077"
         d="m 180.92745,345.44535 c -1.5525,0 -2.92644,-0.16301 -4.12185,-0.48902 -1.1799,-0.32602 -2.17349,-0.77623 -2.98078,-1.35063 -0.79176,-0.58993 -1.38947,-1.2963 -1.79312,-2.1191 -0.40365,-0.83832 -0.60547,-1.75426 -0.60546,-2.74784 -1e-5,-0.96251 0.29497,-1.73873 0.88491,-2.32867 0.60547,-0.58993 1.45933,-0.88489 2.56161,-0.8849 0.0466,0.99358 0.19405,1.94833 0.44246,2.86427 0.26391,0.91595 0.65203,1.72323 1.16435,2.42182 0.51233,0.69861 1.16436,1.25749 1.95614,1.67665 0.79176,0.41916 1.74654,0.62875 2.86433,0.62874 2.14242,10e-6 3.81134,-0.5123 5.00678,-1.53692 1.21091,-1.04014 1.81639,-2.53049 1.81641,-4.47106 -2e-5,-0.86936 -0.12423,-1.63783 -0.3726,-2.30539 -0.24842,-0.66754 -0.65983,-1.28076 -1.23423,-1.83965 -0.57444,-0.5744 -1.33516,-1.11776 -2.28215,-1.63008 -0.93151,-0.52782 -2.09588,-1.07894 -3.4931,-1.65336 -1.47487,-0.60544 -2.76343,-1.2497 -3.86569,-1.9328 -1.10227,-0.69858 -2.01823,-1.46705 -2.7479,-2.30539 -0.72967,-0.85383 -1.27304,-1.80082 -1.63011,-2.84098 -0.35707,-1.04012 -0.53561,-2.21222 -0.53561,-3.5163 0,-1.36613 0.25616,-2.58481 0.76849,-3.65603 0.52783,-1.07116 1.25751,-1.97158 2.189,-2.70126 0.93148,-0.74514 2.03374,-1.31179 3.30679,-1.69993 1.27303,-0.38808 2.6625,-0.58214 4.16843,-0.58217 1.42827,3e-5 2.69355,0.14751 3.79582,0.44245 1.10226,0.29499 2.03375,0.69087 2.79449,1.18762 0.76069,0.49682 1.33511,1.07122 1.72326,1.72322 0.40361,0.63654 0.60544,1.30409 0.60546,2.00266 -2e-5,1.02465 -0.34157,1.80087 -1.02464,2.32868 -0.66759,0.51233 -1.57579,0.76849 -2.72462,0.76846 -2e-5,-0.74515 -0.0932,-1.4748 -0.27944,-2.18895 -0.1708,-0.72963 -0.46576,-1.37389 -0.88492,-1.93281 -0.41918,-0.57437 -0.97031,-1.04011 -1.6534,-1.3972 -0.6831,-0.35703 -1.5292,-0.53556 -2.53831,-0.5356 -0.91598,4e-5 -1.7388,0.13199 -2.46845,0.39588 -0.71416,0.24842 -1.31962,0.61325 -1.81641,1.09448 -0.4968,0.46576 -0.87716,1.03241 -1.14108,1.69993 -0.26393,0.66758 -0.39589,1.41276 -0.39588,2.23553 -1e-5,0.94702 0.12419,1.78534 0.3726,2.51497 0.24839,0.71415 0.6598,1.36618 1.23422,1.95609 0.58994,0.57443 1.35842,1.12554 2.30544,1.65336 0.94701,0.51233 2.11137,1.04792 3.4931,1.60678 1.39722,0.57443 2.63921,1.17988 3.72596,1.81637 1.10225,0.63652 2.03374,1.35065 2.79448,2.14238 0.76069,0.77624 1.34288,1.65338 1.74655,2.63141 0.40362,0.96253 0.60544,2.057 0.60546,3.28343 -2e-5,1.50589 -0.27947,2.85652 -0.83834,4.0519 -0.54339,1.17986 -1.3274,2.18119 -2.35201,3.00399 -1.02467,0.8228 -2.25889,1.45154 -3.70269,1.88623 -1.44382,0.41916 -3.05841,0.62874 -4.84375,0.62874"
         style="font-style:normal;font-variant:normal;font-weight:normal;font-stretch:normal;font-size:47.69128799px;line-height:125%;font-family:'Noto Serif';-inkscape-font-specification:'Noto Serif';letter-spacing:0px;word-spacing:0px;fill:#cccccc;fill-opacity:1;stroke:none"
         id="path3050"
         inkscape:connector-curvature="0" />
      <path
         inkscape:connector-curvature="0"
         id="path3054"
         style="font-style:normal;font-variant:normal;font-weight:normal;font-stretch:normal;font-size:47.69128799px;line-height:125%;font-family:'Noto Serif';-inkscape-font-specification:'Noto Serif';letter-spacing:0px;word-spacing:0px;fill:#cccccc;fill-opacity:1;stroke:none"
         d="m 225.72457,345.44535 c 1.5525,0 2.92644,-0.16301 4.12185,-0.48902 1.1799,-0.32602 2.17349,-0.77623 2.98078,-1.35063 0.79176,-0.58993 1.38947,-1.2963 1.79312,-2.1191 0.40365,-0.83832 0.60547,-1.75426 0.60546,-2.74784 1e-5,-0.96251 -0.29497,-1.73873 -0.88491,-2.32867 -0.60547,-0.58993 -1.45933,-0.88489 -2.56161,-0.8849 -0.0466,0.99358 -0.19405,1.94833 -0.44246,2.86427 -0.26391,0.91595 -0.65203,1.72323 -1.16435,2.42182 -0.51233,0.69861 -1.16436,1.25749 -1.95614,1.67665 -0.79176,0.41916 -1.74654,0.62875 -2.86433,0.62874 -2.14242,10e-6 -3.81134,-0.5123 -5.00678,-1.53692 -1.21091,-1.04014 -1.81639,-2.53049 -1.81641,-4.47106 2e-5,-0.86936 0.12423,-1.63783 0.3726,-2.30539 0.24842,-0.66754 0.65983,-1.28076 1.23423,-1.83965 0.57444,-0.5744 1.33516,-1.11776 2.28215,-1.63008 0.93151,-0.52782 2.09588,-1.07894 3.4931,-1.65336 1.47487,-0.60544 2.76343,-1.2497 3.86569,-1.9328 1.10227,-0.69858 2.01823,-1.46705 2.7479,-2.30539 0.72967,-0.85383 1.27304,-1.80082 1.63011,-2.84098 0.35707,-1.04012 0.53561,-2.21222 0.53561,-3.5163 0,-1.36613 -0.25616,-2.58481 -0.76849,-3.65603 -0.52783,-1.07116 -1.25751,-1.97158 -2.189,-2.70126 -0.93148,-0.74514 -2.03374,-1.31179 -3.30679,-1.69993 -1.27303,-0.38808 -2.6625,-0.58214 -4.16843,-0.58217 -1.42827,3e-5 -2.69355,0.14751 -3.79582,0.44245 -1.10226,0.29499 -2.03375,0.69087 -2.79449,1.18762 -0.76069,0.49682 -1.33511,1.07122 -1.72326,1.72322 -0.40361,0.63654 -0.60544,1.30409 -0.60546,2.00266 2e-5,1.02465 0.34157,1.80087 1.02464,2.32868 0.66759,0.51233 1.57579,0.76849 2.72462,0.76846 2e-5,-0.74515 0.0932,-1.4748 0.27944,-2.18895 0.1708,-0.72963 0.46576,-1.37389 0.88492,-1.93281 0.41918,-0.57437 0.97031,-1.04011 1.6534,-1.3972 0.6831,-0.35703 1.5292,-0.53556 2.53831,-0.5356 0.91598,4e-5 1.7388,0.13199 2.46845,0.39588 0.71416,0.24842 1.31962,0.61325 1.81641,1.09448 0.4968,0.46576 0.87716,1.03241 1.14108,1.69993 0.26393,0.66758 0.39589,1.41276 0.39588,2.23553 1e-5,0.94702 -0.12419,1.78534 -0.3726,2.51497 -0.24839,0.71415 -0.6598,1.36618 -1.23422,1.95609 -0.58994,0.57443 -1.35842,1.12554 -2.30544,1.65336 -0.94701,0.51233 -2.11137,1.04792 -3.4931,1.60678 -1.39722,0.57443 -2.63921,1.17988 -3.72596,1.81637 -1.10225,0.63652 -2.03374,1.35065 -2.79448,2.14238 -0.76069,0.77624 -1.34288,1.65338 -1.74655,2.63141 -0.40362,0.96253 -0.60544,2.057 -0.60546,3.28343 2e-5,1.50589 0.27947,2.85652 0.83834,4.0519 0.54339,1.17986 1.3274,2.18119 2.35201,3.00399 1.02467,0.8228 2.25889,1.45154 3.70269,1.88623 1.44382,0.41916 3.05841,0.62874 4.84375,0.62874"
         inkscape:transform-center-x="-21.28077"
         inkscape:transform-center-y="7.28377" />
    </g>
  </g>
</svg>
